<?xml version="1.0" standalone="no"?>
<!DOCTYPE svg PUBLIC "-//W3C//DTD SVG 20010904//EN"
 "http://www.w3.org/TR/2001/REC-SVG-20010904/DTD/svg10.dtd">
<svg version="1.0" xmlns="http://www.w3.org/2000/svg"
 width="2197.000000pt" height="691.000000pt" viewBox="0 0 2197.000000 691.000000"
 preserveAspectRatio="xMidYMid meet">

<g transform="translate(0.000000,691.000000) scale(0.100000,-0.100000)"
fill="#000000" stroke="none">
<path d="M5304 4072 c-33 -26 -44 -56 -44 -117 0 -61 19 -108 49 -125 11 -5
58 -10 104 -10 83 0 86 1 111 31 23 27 26 39 26 106 0 69 -2 77 -29 104 -28
27 -34 29 -113 29 -63 0 -88 -4 -104 -18z"/>
<path d="M9601 4006 c-51 -28 -66 -104 -31 -149 26 -33 75 -47 163 -47 l67 0
0 -465 0 -465 -82 0 c-65 0 -90 -4 -116 -20 -61 -38 -67 -117 -11 -164 l31
-26 283 0 283 0 31 26 c38 32 49 80 27 123 -24 46 -62 61 -156 61 l-80 0 0
525 c0 566 0 563 -52 599 -30 21 -320 23 -357 2z"/>
<path d="M7291 3686 c-51 -28 -50 -17 -51 -684 l0 -624 29 -28 c36 -36 73 -46
112 -29 61 25 69 53 69 253 l0 179 23 -34 c36 -55 105 -83 202 -83 106 0 157
25 286 138 70 61 104 99 123 137 25 52 26 57 26 253 0 270 -2 274 -202 435
-96 77 -147 100 -217 101 -80 0 -128 -18 -186 -72 l-53 -48 -6 34 c-13 69 -94
106 -155 72z m488 -233 c25 -21 65 -56 88 -79 l43 -41 0 -161 0 -161 -61 -71
c-66 -76 -107 -100 -171 -100 -37 0 -47 7 -134 93 l-94 92 0 138 0 138 68 73
c92 99 117 116 171 116 36 0 52 -7 90 -37z"/>
<path d="M2992 3635 c-51 -43 -51 -107 -1 -154 21 -20 34 -21 200 -21 232 0
234 -1 241 -110 l3 -45 -180 4 c-226 4 -293 -6 -361 -57 -34 -26 -58 -55 -79
-97 -28 -55 -30 -68 -30 -165 0 -127 13 -168 72 -232 71 -75 118 -88 318 -88
l164 0 58 40 c51 36 58 39 64 23 28 -75 158 -80 191 -8 14 32 -7 697 -24 747
-27 80 -96 148 -177 176 -21 8 -107 12 -232 12 -197 0 -198 0 -227 -25z m426
-553 c16 -16 39 -100 30 -107 -2 -1 -39 -22 -84 -48 l-81 -47 -126 0 c-159 0
-167 5 -167 109 0 63 2 71 26 90 25 19 40 21 205 21 161 0 181 -2 197 -18z"/>
<path d="M5129 3631 c-38 -39 -40 -97 -5 -138 23 -26 30 -28 123 -33 l98 -5 3
-287 2 -288 -87 0 c-70 0 -95 -4 -120 -20 -64 -39 -61 -140 6 -174 44 -23 557
-24 601 -1 35 18 51 45 52 86 2 74 -50 109 -166 109 l-76 0 0 163 c0 90 -3
253 -7 363 l-6 199 -28 27 -27 28 -167 0 -167 0 -29 -29z"/>
<path d="M11928 3645 c-83 -30 -166 -105 -210 -188 -22 -40 -23 -56 -26 -274
l-3 -233 27 -59 c33 -74 111 -151 191 -189 56 -26 65 -27 223 -27 161 0 166 1
223 29 73 35 161 120 190 183 21 45 22 61 22 283 0 226 -1 237 -23 282 -30 61
-127 152 -194 183 -50 23 -63 25 -218 24 -114 0 -177 -5 -202 -14z m379 -231
l48 -41 3 -197 c1 -108 -1 -203 -5 -210 -5 -8 -28 -30 -51 -50 l-44 -36 -132
0 -131 0 -48 43 -47 44 0 204 0 203 43 44 42 43 137 -3 136 -3 49 -41z"/>
<path d="M13971 3646 c-40 -22 -50 -54 -51 -156 l0 -95 127 -295 c69 -162 133
-305 141 -317 8 -13 32 -28 53 -33 21 -6 39 -14 39 -17 0 -4 -21 -53 -47 -110
l-48 -102 -93 -1 c-134 0 -172 -24 -172 -107 0 -31 7 -46 31 -69 l30 -29 149
0 c133 0 151 2 175 20 21 15 81 142 256 535 l229 515 0 108 c0 107 -1 109 -29
138 -23 23 -38 29 -71 29 -33 0 -48 -6 -71 -29 -27 -28 -29 -35 -29 -107 0
-77 -1 -78 -112 -326 -83 -187 -115 -248 -127 -246 -10 2 -53 89 -118 238 -95
220 -102 239 -102 303 -1 77 -18 127 -52 151 -28 19 -75 20 -108 2z"/>
<path d="M16393 3649 c-42 -12 -166 -106 -199 -150 -48 -65 -56 -118 -52 -356
3 -211 4 -220 28 -268 23 -44 78 -97 168 -161 53 -39 90 -43 354 -44 l258 0
30 28 c62 55 42 149 -37 171 -22 6 -137 11 -266 11 l-227 0 -50 48 c-36 34
-50 56 -50 75 l0 27 304 0 303 0 27 27 c36 36 38 51 34 215 -4 174 -13 195
-120 287 -110 96 -123 101 -313 100 -88 0 -174 -5 -192 -10z m358 -224 c52
-38 59 -53 59 -122 l0 -63 -230 0 -230 0 0 56 c0 65 31 129 70 143 14 5 86 10
161 10 129 1 137 0 170 -24z"/>
<path d="M18414 3642 c-43 -34 -44 -43 -44 -482 l0 -422 34 -34 c54 -54 124
-42 158 26 16 30 18 66 18 267 l0 232 127 110 c137 119 154 127 245 119 66 -7
88 -31 88 -97 0 -55 20 -88 64 -106 40 -17 79 -9 111 22 22 23 25 34 25 97 0
96 -13 135 -61 190 -65 74 -104 89 -236 94 -152 6 -192 -8 -288 -99 l-73 -69
-4 57 c-4 48 -10 61 -37 85 -37 33 -94 38 -127 10z"/>
</g>
</svg>
